<svg width="16" height="16" viewBox="0 0 16 16" fill="none" xmlns="http://www.w3.org/2000/svg">
<path d="M8 8.6665C9.10457 8.6665 10 7.77107 10 6.6665C10 5.56193 9.10457 4.6665 8 4.6665C6.89543 4.6665 6 5.56193 6 6.6665C6 7.77107 6.89543 8.6665 8 8.6665Z" stroke="#171D2B" stroke-width="1.5" stroke-linecap="round" stroke-linejoin="round"/>
<path d="M13.3334 6.4617C13.3334 11.0771 8.00002 14.6668 8.00002 14.6668C8.00002 14.6668 2.66669 11.0771 2.66669 6.4617C2.66669 5.10162 3.22859 3.79724 4.22878 2.83551C5.22898 1.87379 6.58553 1.3335 8.00002 1.3335C9.41451 1.3335 10.7711 1.87379 11.7713 2.83551C12.7714 3.79724 13.3334 5.10162 13.3334 6.4617V6.4617Z" stroke="#171D2B" stroke-width="1.5" stroke-linecap="round" stroke-linejoin="round"/>
</svg>
