<svg width="222" height="61" viewBox="0 0 222 61" fill="none" xmlns="http://www.w3.org/2000/svg">
  <path d="M73.3005 37.102C68.4581 37.102 67.7855 33.9857 67.7855 31.3041C67.7855 30.968 67.8816 29.626 67.8816 27.5181H70.7111C74.5471 27.5181 74.451 21.7683 70.7111 21.7683H67.8816V16.9259C67.8816 15.0101 66.4908 14.1003 65.004 14.1003C63.5171 14.1003 62.0303 15.0581 62.0303 16.9259V32.3581C62.0303 37.6782 66.0104 42.8543 73.2979 42.8543C77.0884 42.8517 77.0884 37.102 73.3005 37.102ZM89.2714 18.2199C82.0319 18.2199 76.3728 23.9697 76.3728 30.872C76.3728 39.5459 84.1888 43.572 89.1753 43.572C90.5661 43.572 91.8127 43.2359 92.5308 42.6142C93.2489 41.9899 93.2489 41.3202 93.2489 41.032C93.2489 40.6959 93.1529 40.2662 92.9607 39.8341C92.2881 38.2999 90.9959 38.2519 90.3714 38.2519C90.1311 38.2519 89.6532 38.2999 89.2689 38.2999C85.1446 38.2999 82.267 34.5139 82.267 30.872C82.267 25.888 85.7667 23.444 89.3624 23.444C92.8621 23.444 96.3162 25.888 96.3162 30.872V40.3143C96.3162 42.0379 97.803 42.9023 99.2899 42.9023C100.777 42.9023 102.216 42.0405 102.216 40.3143V30.872C102.218 23.8256 96.5109 18.2199 89.2714 18.2199ZM114.654 19.2738C111.25 19.2738 105.687 23.492 105.543 30.2022V40.0261C105.543 41.9419 106.934 42.8543 108.421 42.8543C109.908 42.8543 111.395 41.8964 111.395 40.0261C111.395 35.3783 111.298 33.6041 111.298 32.8863C111.298 29.0042 111.635 26.1761 115.375 24.8341C117.054 24.2578 117.342 22.7717 117.342 22.198V22.0059C117.339 20.1357 116.234 19.2738 114.654 19.2738ZM130.481 18.2199C123.241 18.2199 117.582 23.9697 117.582 30.872C117.582 39.5459 125.398 43.572 130.385 43.572C131.775 43.572 133.022 43.2359 133.74 42.6142C134.458 41.9899 134.458 41.3202 134.458 41.032C134.458 40.6959 134.362 40.2662 134.17 39.8341C133.497 38.2999 132.205 38.2519 131.581 38.2519C131.34 38.2519 130.863 38.2999 130.478 38.2999C126.354 38.2999 123.476 34.5139 123.476 30.872C123.476 25.888 126.976 23.444 130.572 23.444C134.071 23.444 137.526 25.888 137.526 30.872V40.3143C137.526 42.0379 139.012 42.9023 140.499 42.9023C141.986 42.9023 143.425 42.0405 143.425 40.3143V30.872C143.427 23.8256 137.723 18.2199 130.481 18.2199ZM158.44 18.2199C152.543 18.2199 146.5 22.198 146.5 29.5779V39.9276C146.5 41.8458 147.939 42.8517 149.425 42.8517C150.912 42.8517 152.348 41.8458 152.348 39.9276V29.5779C152.348 25.936 155.226 24.0177 158.056 24.0177C160.933 24.0177 163.808 25.9335 163.808 29.5779V39.9276C163.808 41.8913 165.247 42.8517 166.734 42.8517C168.221 42.8517 169.708 41.8458 169.708 39.9276V29.5779C169.708 21.8619 164.145 18.2199 158.44 18.2199ZM184.3 37.102C179.458 37.102 178.785 33.9857 178.785 31.3041C178.785 30.968 178.882 29.626 178.882 27.5181H181.711C185.547 27.5181 185.451 21.7683 181.711 21.7683H178.882V16.9259C178.882 15.0101 177.491 14.1003 176.004 14.1003C174.517 14.1003 173.033 15.0581 173.033 16.9259V32.3581C173.033 37.6782 177.013 42.8543 184.3 42.8543C188.088 42.8517 188.088 37.102 184.3 37.102ZM209.094 18.9377C207.607 18.9377 206.12 19.8955 206.12 21.8619V32.166C206.12 35.856 203.243 37.7717 200.367 37.7717C197.49 37.7717 194.708 35.856 194.708 32.166V21.8619C194.708 19.8981 193.27 18.9377 191.783 18.9377C190.296 18.9377 188.809 19.9436 188.809 21.8619V32.166C188.809 39.642 194.85 43.524 200.749 43.524C206.454 43.524 212.017 39.8821 212.017 32.166V21.8619C212.02 19.8981 210.581 18.9377 209.094 18.9377ZM219.074 8.52234C217.588 8.52234 216.101 9.48022 216.101 11.4465V39.9301C216.101 41.8484 217.588 42.8543 219.074 42.8543C220.561 42.8543 221.998 41.8484 221.998 39.9301V11.444C222 9.48022 220.561 8.52234 219.074 8.52234Z" fill="#FFFFFF" />
  <path d="M48.0976 35.1407C47.4832 34.7869 45.9483 34.2435 43.9507 33.6142C42.9417 30.278 42.9417 26.7195 43.9507 23.3833C45.9483 22.7565 47.4832 22.2131 48.0976 21.8568C50.7628 20.3201 51.6757 16.9132 50.1383 14.2494C48.5983 11.5855 45.1897 10.6731 42.5245 12.2098C41.91 12.5636 40.671 13.6226 39.1285 15.0379C35.7326 14.2443 32.6501 12.465 30.2631 9.92249C30.7182 7.88037 31.0166 6.27801 31.0166 5.56782C31.0166 2.49452 28.5209 0 25.4435 0C22.3661 0 19.8704 2.49452 19.8704 5.57035C19.8704 6.95788 21.0057 11.7599 22.2498 16.6125C20.806 18.2426 18.8766 19.3572 16.7424 19.7919C13.1593 16.2864 9.56612 12.9048 8.36248 12.2098C5.69729 10.6706 2.28868 11.5855 0.748729 14.2494C-0.791217 16.9132 0.124153 20.3201 2.78935 21.8593C3.40381 22.2131 4.9387 22.7591 6.93633 23.3858C7.94779 26.722 7.94779 30.2805 6.93886 33.6167C4.94123 34.2435 3.40634 34.7869 2.79188 35.1432C0.126682 36.6799 -0.786159 40.0868 0.751258 42.7532C2.2912 45.417 5.69982 46.3294 8.36501 44.7928C10.1882 43.7388 17.5162 36.5004 21.959 32.0345C22.4015 31.7515 22.9679 31.7085 23.4383 31.9815C23.9086 32.2544 24.1539 32.7675 24.1286 33.2932C22.4799 39.3741 19.8729 49.3319 19.8729 51.4372C19.8729 54.5131 22.3661 57.0076 25.4435 57.0076C28.5209 57.0076 31.0166 54.5131 31.0166 51.4372C31.0166 50.727 30.7208 49.1272 30.2656 47.0851C32.6527 44.5425 35.7351 42.7633 39.1311 41.9697C40.6735 43.385 41.9126 44.4415 42.527 44.7953C45.1922 46.3345 48.6008 45.4221 50.1383 42.7582C51.6757 40.0868 50.7628 36.6799 48.0976 35.1407ZM27.6864 20.2494C28.8192 21.1794 30.0962 21.9174 31.4667 22.4305C30.564 23.3277 29.7017 24.1921 28.928 24.968C28.4855 25.2485 27.9216 25.2915 27.4512 25.0211C26.9809 24.7481 26.7356 24.2376 26.7609 23.7094C27.0467 22.6554 27.3627 21.4802 27.6864 20.2494ZM26.7584 33.2856C26.7356 32.7599 26.9809 32.2494 27.4512 31.9764C27.9241 31.706 28.488 31.7489 28.933 32.0345C29.7068 32.8104 30.5665 33.6723 31.4718 34.572C30.0987 35.0851 28.8218 35.8231 27.6889 36.7557C27.3602 35.5198 27.0441 34.3446 26.7584 33.2856ZM40.2892 32.5173C36.9311 31.5442 33.1508 30.5232 30.2454 29.7523C29.7801 29.5097 29.459 29.0421 29.459 28.4987C29.459 27.9554 29.7801 27.4878 30.2479 27.2452C33.1533 26.4743 36.9337 25.4532 40.2892 24.4827C39.7708 27.1365 39.7708 29.8635 40.2892 32.5173ZM36.347 17.6588C35.6264 18.3513 34.8855 19.0691 34.1446 19.7944C32.0129 19.3597 30.081 18.2426 28.6372 16.615C28.8951 15.6116 29.148 14.6108 29.3857 13.6428C31.4237 15.417 33.788 16.7818 36.347 17.6588ZM10.5953 24.4827C11.5536 24.7607 12.5449 25.0413 13.5437 25.3193C14.234 27.3842 14.234 29.6133 13.5462 31.6782C12.5499 31.9562 11.5562 32.2393 10.5978 32.5173C11.1162 29.8635 11.1162 27.1365 10.5953 24.4827ZM20.6365 29.7523C19.577 30.0329 18.3987 30.3488 17.1698 30.6824C17.41 29.2367 17.4075 27.7607 17.1672 26.3151C18.3987 26.6487 19.577 26.9646 20.6391 27.2452C21.1069 27.4878 21.428 27.9554 21.428 28.4987C21.4255 29.0447 21.1043 29.5122 20.6365 29.7523ZM23.4332 25.0236C22.9604 25.2965 22.3965 25.2511 21.9514 24.9655C21.1777 24.1896 20.3179 23.3277 19.4152 22.4305C20.7883 21.9149 22.0652 21.1794 23.1955 20.2468C23.5217 21.4777 23.8378 22.6554 24.1261 23.7144C24.1488 24.2401 23.9061 24.7506 23.4332 25.0236ZM29.3857 43.3648C29.148 42.3943 28.8951 41.396 28.6372 40.3901C30.081 38.7599 32.0129 37.6453 34.1471 37.2106C34.888 37.936 35.6289 38.6537 36.3495 39.3462C33.7906 40.2233 31.4263 41.588 29.3857 43.3648Z" fill="#B4B4B4" />
</svg>
