<svg width="200" height="44" viewBox="0 0 200 44" fill="none" xmlns="http://www.w3.org/2000/svg">
<g clip-path="url(#clip0_301_1042)">
<path d="M64.7709 29.4575V41.5608H61.3884V32.1575H56.7977V41.5608H53.4337V29.4575H64.7709Z" fill="#171D2B"/>
<path d="M69.6961 41.0021C68.6739 40.4621 67.8747 39.7173 67.2986 38.749C66.7224 37.7994 66.425 36.7194 66.425 35.5091C66.425 34.2988 66.7224 33.2374 67.2986 32.2691C67.8747 31.3195 68.6739 30.5561 69.6961 30.0161C70.7183 29.4761 71.8706 29.1968 73.1345 29.1968C74.3983 29.1968 75.5692 29.4761 76.5728 30.0161C77.595 30.5561 78.3942 31.3009 78.9704 32.2691C79.5465 33.2188 79.8439 34.2988 79.8439 35.5091C79.8439 36.7194 79.5465 37.7808 78.9704 38.749C78.3942 39.6987 77.595 40.4621 76.5728 41.0021C75.5506 41.5421 74.3983 41.8214 73.1345 41.8214C71.8706 41.8214 70.6997 41.5421 69.6961 41.0021ZM74.7886 38.5442C75.2904 38.2649 75.6807 37.8553 75.9595 37.3153C76.2383 36.7939 76.3869 36.1794 76.3869 35.5091C76.3869 34.8388 76.2383 34.2243 75.9595 33.7029C75.6621 33.1815 75.2718 32.7719 74.7886 32.4926C74.2868 32.1947 73.7478 32.0643 73.1345 32.0643C72.5211 32.0643 71.9636 32.2133 71.4803 32.4926C70.9785 32.7719 70.5882 33.1815 70.3094 33.7029C70.0121 34.2243 69.882 34.8388 69.882 35.5091C69.882 36.1794 70.0307 36.7939 70.3094 37.3153C70.5882 37.8366 70.9971 38.2463 71.4803 38.5442C71.9821 38.8421 72.5211 38.9725 73.1345 38.9725C73.7478 38.9725 74.3054 38.8235 74.7886 38.5442Z" fill="#171D2B"/>
<path d="M94.1549 38.8423V44.0001H91.0325V41.5608H83.3009V44.0001H80.1599V38.8423H80.5874C81.2936 38.8236 81.814 38.3395 82.0928 37.3713C82.3902 36.403 82.5575 35.0065 82.6318 33.1817L82.7619 29.439H92.5008V38.8423H94.1549ZM85.3081 36.7754C85.1409 37.6692 84.8992 38.3768 84.5647 38.8609H89.1368V32.1762H85.6798L85.6241 33.4982C85.5683 34.783 85.4754 35.8816 85.3081 36.7754Z" fill="#171D2B"/>
<path d="M106.514 41.5608L106.496 35.1367L103.392 40.3691H101.868L98.764 35.2857V41.5608H95.623V29.4575H98.4295L102.686 36.4402L106.83 29.4575H109.637L109.674 41.5608H106.514Z" fill="#171D2B"/>
<path d="M114.58 41.0021C113.558 40.4621 112.759 39.7173 112.183 38.749C111.607 37.7994 111.309 36.7194 111.309 35.5091C111.309 34.2988 111.607 33.2374 112.183 32.2691C112.759 31.3195 113.558 30.5561 114.58 30.0161C115.603 29.4761 116.755 29.1968 118.019 29.1968C119.301 29.1968 120.453 29.4761 121.457 30.0161C122.479 30.5561 123.278 31.3009 123.855 32.2691C124.431 33.2188 124.728 34.2988 124.728 35.5091C124.728 36.7194 124.431 37.7808 123.855 38.749C123.278 39.6987 122.479 40.4621 121.457 41.0021C120.435 41.5421 119.283 41.8214 118.019 41.8214C116.736 41.8028 115.584 41.5421 114.58 41.0021ZM119.673 38.5442C120.175 38.2649 120.565 37.8553 120.844 37.3153C121.123 36.7939 121.271 36.1794 121.271 35.5091C121.271 34.8388 121.123 34.2243 120.844 33.7029C120.546 33.1815 120.156 32.7719 119.673 32.4926C119.171 32.1947 118.632 32.0643 118.019 32.0643C117.405 32.0643 116.848 32.2133 116.365 32.4926C115.863 32.7719 115.473 33.1815 115.194 33.7029C114.896 34.2243 114.766 34.8388 114.766 35.5091C114.766 36.1794 114.915 36.7939 115.194 37.3153C115.473 37.8366 115.881 38.2463 116.365 38.5442C116.866 38.8421 117.405 38.9725 118.019 38.9725C118.632 38.9725 119.19 38.8235 119.673 38.5442Z" fill="#171D2B"/>
<path d="M128.873 41.002C127.869 40.4621 127.07 39.7172 126.494 38.7676C125.918 37.818 125.639 36.7194 125.639 35.509C125.639 34.2987 125.918 33.2187 126.494 32.2505C127.07 31.3008 127.869 30.5374 128.873 30.016C129.876 29.476 131.01 29.2153 132.293 29.2153C133.389 29.2153 134.393 29.4202 135.285 29.8112C136.177 30.2022 136.902 30.7608 137.497 31.5056L135.322 33.4794C134.541 32.5298 133.594 32.0643 132.478 32.0643C131.828 32.0643 131.233 32.2132 130.731 32.4925C130.211 32.7718 129.821 33.1815 129.542 33.7028C129.263 34.2242 129.114 34.8387 129.114 35.509C129.114 36.1794 129.263 36.7938 129.542 37.3152C129.821 37.8366 130.23 38.2462 130.731 38.5442C131.252 38.8421 131.828 38.9724 132.478 38.9724C133.594 38.9724 134.541 38.5069 135.322 37.5573L137.497 39.531C136.902 40.2758 136.177 40.8345 135.285 41.2255C134.393 41.6165 133.408 41.8213 132.293 41.8213C131.01 41.8027 129.876 41.542 128.873 41.002Z" fill="#171D2B"/>
<path d="M143.741 36.9243H142.18V41.5608H138.779V29.4575H142.18V34.1685H143.816L146.696 29.4575H150.283L146.492 35.3043L150.302 41.5608H146.455L143.741 36.9243Z" fill="#171D2B"/>
<path d="M153.685 41.0021C152.662 40.4621 151.863 39.7173 151.287 38.749C150.711 37.7994 150.414 36.7194 150.414 35.5091C150.414 34.2988 150.711 33.2374 151.287 32.2691C151.863 31.3195 152.662 30.5561 153.685 30.0161C154.707 29.4761 155.859 29.1968 157.123 29.1968C158.387 29.1968 159.558 29.4761 160.561 30.0161C161.584 30.5561 162.383 31.3009 162.959 32.2691C163.535 33.2188 163.832 34.2988 163.832 35.5091C163.832 36.7194 163.535 37.7808 162.959 38.749C162.383 39.6987 161.584 40.4621 160.561 41.0021C159.539 41.5421 158.387 41.8214 157.123 41.8214C155.859 41.8214 154.707 41.5421 153.685 41.0021ZM158.796 38.5442C159.298 38.2649 159.688 37.8553 159.967 37.3153C160.245 36.7939 160.394 36.1794 160.394 35.5091C160.394 34.8388 160.245 34.2243 159.967 33.7029C159.669 33.1815 159.279 32.7719 158.796 32.4926C158.294 32.1947 157.755 32.0643 157.142 32.0643C156.528 32.0643 155.971 32.2133 155.487 32.4926C154.986 32.7719 154.595 33.1815 154.317 33.7029C154.019 34.2243 153.889 34.8388 153.889 35.5091C153.889 36.1794 154.038 36.7939 154.317 37.3153C154.595 37.8366 155.004 38.2463 155.487 38.5442C155.989 38.8421 156.528 38.9725 157.142 38.9725C157.755 38.9725 158.294 38.8235 158.796 38.5442Z" fill="#171D2B"/>
<path d="M175.95 36.3098C176.322 36.7939 176.508 37.3897 176.508 38.1159C176.508 39.1959 176.099 40.0338 175.263 40.6483C174.426 41.2628 173.237 41.5793 171.713 41.5793H165.505V29.4761H171.378C172.828 29.4761 173.962 29.7554 174.761 30.2954C175.56 30.8354 175.969 31.6174 175.969 32.6229C175.969 33.2188 175.82 33.7215 175.541 34.187C175.263 34.6339 174.854 34.9877 174.315 35.267C175.04 35.4718 175.579 35.8256 175.95 36.3098ZM168.888 34.2988H171.062C172.029 34.2988 172.512 33.9077 172.512 33.1071C172.512 32.3064 172.029 31.9153 171.062 31.9153H168.888V34.2988ZM173.069 37.8366C173.069 37.0173 172.568 36.6077 171.583 36.6077H168.888V39.1028H171.583C172.568 39.1028 173.069 38.6932 173.069 37.8366Z" fill="#171D2B"/>
<path d="M187.789 34.2989C188.588 34.9692 188.997 35.9375 188.997 37.2409C188.997 38.6374 188.551 39.6988 187.641 40.4436C186.73 41.1884 185.485 41.5422 183.886 41.5422H178.162V29.439H181.526V33.2934H184.332C185.838 33.312 186.99 33.6472 187.789 34.2989ZM185.057 38.6374C185.392 38.3209 185.559 37.8926 185.559 37.3154C185.559 36.2727 184.927 35.7327 183.682 35.7327H181.563V39.103H183.682C184.258 39.103 184.723 38.954 185.057 38.6374Z" fill="#171D2B"/>
<path d="M200 29.4575V41.5608H196.636V38.507H194.778L192.789 41.5608H189.202L191.655 38.0229C190.856 37.6691 190.243 37.1477 189.815 36.4774C189.388 35.8071 189.183 35.0064 189.183 34.0568C189.183 33.1071 189.406 32.2878 189.834 31.5989C190.28 30.9099 190.893 30.3699 191.711 30.0161C192.529 29.6437 193.477 29.4575 194.573 29.4575H200ZM192.622 34.0009C192.622 34.6154 192.789 35.0809 193.123 35.3974C193.458 35.714 193.96 35.8816 194.592 35.8816H196.636V32.1575H194.629C193.291 32.1575 192.622 32.772 192.622 34.0009Z" fill="#171D2B"/>
<path d="M73.9522 7.22471C74.3239 7.72747 74.5284 8.32332 74.5284 8.97503C74.5284 9.71985 74.2682 10.3716 73.7664 10.9302C73.2646 11.4888 72.5769 11.9171 71.7034 12.1964C70.8484 12.4943 69.882 12.6433 68.8598 12.6433C68.042 12.6433 67.2056 12.5501 66.3693 12.3453C65.5143 12.1405 64.7152 11.8612 63.9346 11.4702L64.9568 9.08675C65.4958 9.36606 66.0719 9.57088 66.6852 9.71985C67.2986 9.86881 67.8933 9.94329 68.4695 9.94329C69.2315 9.94329 69.8448 9.81295 70.328 9.57088C70.8113 9.32882 71.0529 8.97503 71.0529 8.52814C71.0529 8.17435 70.9042 7.91367 70.6068 7.72747C70.3094 7.54126 69.9191 7.44816 69.3987 7.44816H66.3135V4.95303H69.12C69.5846 4.95303 69.9377 4.85992 70.1979 4.67372C70.4581 4.48752 70.5696 4.24545 70.5696 3.9289C70.5696 3.53788 70.3652 3.23995 69.9749 3.0165C69.5846 2.81168 69.0828 2.69996 68.4509 2.69996C67.9491 2.69996 67.4101 2.77444 66.8525 2.9234C66.2949 3.07237 65.756 3.27719 65.2541 3.53788L64.2505 0.93102C65.5515 0.316547 66.964 0 68.5066 0C69.4917 0 70.421 0.148963 71.2573 0.428269C72.1122 0.707575 72.7813 1.11722 73.2831 1.65722C73.785 2.17859 74.0266 2.81168 74.0266 3.53788C74.0266 4.09649 73.8779 4.59924 73.5805 5.04613C73.2831 5.49302 72.8743 5.84681 72.3539 6.08887C73.0415 6.34956 73.5619 6.72196 73.9522 7.22471Z" fill="#171D2B"/>
<path d="M85.9028 9.73846V12.3826H76.201V0.279297H85.6797V2.92339H79.5836V4.97164H84.9549V7.54125H79.5836V9.75708H85.9028V9.73846Z" fill="#171D2B"/>
<path d="M98.5782 12.3826L98.5596 5.95852L95.4558 11.1909H93.9318L90.828 6.10748V12.3826H87.687V0.279297H90.4934L94.7496 7.26195L98.8941 0.279297H101.701L101.738 12.3826H98.5782Z" fill="#171D2B"/>
<path d="M113.837 9.73846V12.3826H104.135V0.279297H113.614V2.92339H107.518V4.97164H112.889V7.54125H107.518V9.75708H113.837V9.73846Z" fill="#171D2B"/>
<path d="M126.903 0.279297V12.3826H123.539V2.99788H120.063L119.989 4.97164C119.933 6.70333 119.784 8.09986 119.561 9.19847C119.338 10.2785 118.948 11.1164 118.409 11.7122C117.87 12.3081 117.108 12.606 116.104 12.606C115.64 12.606 115.119 12.5315 114.543 12.4012L114.729 9.5895C114.878 9.62674 115.026 9.64536 115.194 9.64536C115.64 9.64536 115.993 9.45915 116.235 9.10537C116.476 8.75158 116.643 8.24883 116.755 7.61573C116.866 6.98264 116.922 6.14472 116.959 5.1206L117.127 0.297917H126.903V0.279297Z" fill="#171D2B"/>
<path d="M138.928 5.12067C139.727 5.791 140.136 6.75926 140.136 8.06269C140.136 9.45922 139.69 10.5206 138.798 11.2654C137.905 12.0102 136.642 12.364 135.043 12.364H129.319V0.260742H132.683V4.11516H135.489C136.976 4.13378 138.11 4.46895 138.928 5.12067ZM136.177 9.45922C136.511 9.14267 136.679 8.7144 136.679 8.13717C136.679 7.09443 136.047 6.55444 134.802 6.55444H132.683V9.90611H134.802C135.378 9.92473 135.842 9.77577 136.177 9.45922Z" fill="#171D2B"/>
<path d="M153.183 0.279297V12.3826H149.763V7.67159H145.098V12.4012H141.678V0.297917H145.098V4.84129H149.763V0.279297H153.183Z" fill="#171D2B"/>
<path d="M165.208 5.12067C166.007 5.791 166.416 6.75926 166.416 8.06269C166.416 9.45922 165.97 10.5206 165.078 11.2654C164.185 12.0102 162.922 12.364 161.323 12.364H155.599V0.260742H158.963V4.11516H161.769C163.256 4.13378 164.408 4.46895 165.208 5.12067ZM162.476 9.45922C162.81 9.14267 162.977 8.7144 162.977 8.13717C162.977 7.09443 162.345 6.55444 161.1 6.55444H158.981V9.90611H161.1C161.676 9.92473 162.122 9.77577 162.476 9.45922ZM167.754 0.279363H171.118V12.3826H167.754V0.279363Z" fill="#171D2B"/>
<path d="M183.254 9.73846V12.3826H173.553V0.279297H183.031V2.92339H176.935V4.97164H182.306V7.54125H176.935V9.75708H183.254V9.73846Z" fill="#171D2B"/>
<path d="M65.7188 24.6348H60.6077L59.6599 26.9809H56.1658L61.4998 14.8777H64.8639L70.2165 26.9809H66.6667L65.7188 24.6348ZM64.7152 22.1024L63.154 18.2294L61.5928 22.1024H64.7152Z" fill="#171D2B"/>
<path d="M76.3126 22.3445H74.7514V26.9809H71.3688V14.8777H74.7699V19.5886H76.4055L79.2863 14.8777H82.8733L79.0818 20.7245L82.8919 26.9809H79.0446L76.3126 22.3445Z" fill="#171D2B"/>
<path d="M93.4299 17.5777H89.7314V26.981H86.3674V17.5777H82.6503V14.8591H93.4299V17.5777Z" fill="#171D2B"/>
<path d="M94.8239 14.8591H98.1879V21.9721L103.187 14.8591H106.403V26.9624H103.039V19.868L98.0577 26.9624H94.8239V14.8591Z" fill="#171D2B"/>
<path d="M119.264 21.7114C119.636 22.1955 119.822 22.7914 119.822 23.5176C119.822 24.5975 119.413 25.4355 118.576 26.0499C117.74 26.6644 116.55 26.9809 115.026 26.9809H108.819V14.8777H114.692C116.142 14.8777 117.275 15.157 118.074 15.697C118.874 16.237 119.283 17.019 119.283 18.0245C119.283 18.6204 119.134 19.1231 118.855 19.5886C118.576 20.0355 118.167 20.3893 117.628 20.6686C118.335 20.8735 118.892 21.2272 119.264 21.7114ZM112.183 19.719H114.357C115.324 19.719 115.807 19.328 115.807 18.5273C115.807 17.7266 115.324 17.317 114.357 17.317H112.183V19.719ZM116.365 23.2569C116.365 22.4376 115.863 22.0279 114.878 22.0279H112.183V24.5231H114.878C115.881 24.5231 116.365 24.0948 116.365 23.2569Z" fill="#171D2B"/>
<path d="M131.103 19.7191C131.902 20.3894 132.311 21.3576 132.311 22.6611C132.311 24.0576 131.865 25.119 130.973 25.8638C130.081 26.6086 128.817 26.9624 127.219 26.9624H121.494V14.8591H124.858V18.7136H127.665C129.152 18.7322 130.304 19.0487 131.103 19.7191ZM128.352 24.0576C128.687 23.7411 128.854 23.3128 128.854 22.7356C128.854 21.6928 128.222 21.1528 126.977 21.1528H124.858V24.5045H126.977C127.572 24.5231 128.018 24.3742 128.352 24.0576ZM133.631 14.8591H136.995V26.9624H133.631V14.8591Z" fill="#171D2B"/>
<path d="M60.9609 0.279297H49.2705L30.4805 41.5607H37.5802C40.368 41.5607 42.9143 39.9221 44.0666 37.3711L60.9609 0.279297Z" fill="#97C33E"/>
<path d="M45.7207 0.279297H34.0303L15.2402 41.5607H22.3399C25.1278 41.5607 27.674 39.9221 28.8263 37.3711L45.7207 0.279297Z" fill="#1E8E43"/>
<path d="M30.4804 0.279297H18.7901L0 41.5607H7.09971C9.88756 41.5607 12.4338 39.9221 13.5861 37.3711L30.4804 0.279297Z" fill="#3A86C7"/>
</g>
<defs>
<clipPath id="clip0_301_1042">
<rect width="200" height="44" fill="white"/>
</clipPath>
</defs>
</svg>
